<?xml version="1.0" encoding="UTF-8"?>
<svg id="Capa_1" data-name="Capa 1" xmlns="http://www.w3.org/2000/svg" viewBox="0 0 270 221.51">
  <defs>
    <style>
      .cls-1 {
        stroke: #fff;
        stroke-miterlimit: 10;
        stroke-width: 1.42px;
      }

      .cls-2 {
        fill: #b07f11;
      }
    </style>
  </defs>
  <g>
    <circle class="cls-2" cx="113.63" cy="115.37" r="47.86" transform="translate(-1.79 1.79) rotate(-.89)"/>
    <g>
      <path class="cls-2" d="M113.13,58.74s-.58-.91-1.3-2.5c-.35-.8-.77-1.77-1.14-2.88-.38-1.11-.77-2.36-1.09-3.73-.34-1.37-.63-2.85-.84-4.41-.24-1.56-.38-3.22-.36-4.92.03-1.71.26-3.47.53-5.27.27-1.79.51-3.62.69-5.44.35-3.64.64-7.29,1.06-10.71.37-3.42.78-6.6,1.13-9.34.72-5.47,1.31-9.11,1.31-9.11.05-.28.31-.46.58-.42.22.03.38.21.42.42,0,0,.6,3.64,1.31,9.11.35,2.73.76,5.92,1.13,9.34.42,3.42.72,7.06,1.07,10.71.17,1.82.42,3.64.69,5.44.27,1.79.5,3.56.53,5.27.02,1.71-.12,3.36-.36,4.92-.22,1.57-.51,3.05-.84,4.41-.32,1.37-.71,2.62-1.09,3.73-.37,1.11-.79,2.08-1.14,2.88-.72,1.59-1.3,2.5-1.3,2.5-.18.28-.54.36-.82.18-.08-.05-.14-.11-.18-.18Z"/>
      <path class="cls-2" d="M93.93,62.28s-.55-.25-1.29-.76c-.38-.25-.8-.58-1.24-.97-.45-.38-.91-.83-1.37-1.35-.89-1.03-1.82-2.27-2.39-3.78-.54-1.51-.59-3.33-1.02-5-.39-1.68-.81-3.36-1.11-4.96-.33-1.59-.6-3.1-.84-4.38-.45-2.58-.68-4.33-.68-4.33-.03-.2.12-.39.32-.41.14-.02.27.04.35.15,0,0,1.02,1.44,2.43,3.65.7,1.11,1.52,2.4,2.34,3.8.86,1.39,1.68,2.91,2.53,4.41.82,1.52,2,2.89,2.63,4.37.6,1.49.76,3.03.79,4.4.02.68-.02,1.33-.09,1.92-.07.59-.16,1.11-.27,1.55-.2.88-.44,1.43-.44,1.43-.11.25-.4.37-.66.26,0,0,0,0-.01,0Z"/>
      <path class="cls-2" d="M76.84,72.31s-1.03-.32-2.6-1.09c-.78-.39-1.73-.85-2.72-1.47-1.01-.6-2.11-1.32-3.23-2.16-1.14-.83-2.31-1.78-3.48-2.84-1.19-1.04-2.36-2.22-3.44-3.54-1.08-1.33-2.03-2.83-2.98-4.37-.95-1.55-1.93-3.1-2.97-4.61-2.08-3.02-4.19-6-6.07-8.89-1.91-2.86-3.64-5.57-5.14-7.88-2.96-4.65-4.85-7.82-4.85-7.82-.14-.24-.06-.55.18-.7.19-.11.43-.09.59.05,0,0,2.8,2.41,6.86,6.14,2.02,1.87,4.39,4.05,6.87,6.43,2.52,2.35,5.09,4.95,7.7,7.52,1.3,1.29,2.66,2.52,4.02,3.72,1.36,1.2,2.67,2.41,3.79,3.7,1.11,1.29,2.07,2.65,2.89,4,.84,1.34,1.57,2.66,2.19,3.92.63,1.26,1.14,2.46,1.56,3.56.43,1.09.73,2.1.97,2.94.48,1.68.62,2.75.62,2.75.04.33-.19.62-.51.67-.09.01-.18,0-.26-.02Z"/>
      <path class="cls-2" d="M64.41,87.37s-.58.16-1.48.25c-.45.05-.98.07-1.57.06-.59,0-1.24-.05-1.91-.16-1.35-.21-2.86-.57-4.26-1.36-1.38-.82-2.59-2.17-3.99-3.18-1.38-1.04-2.78-2.05-4.04-3.09-1.28-1-2.45-1.98-3.46-2.82-2-1.68-3.3-2.88-3.3-2.88-.15-.14-.16-.37-.02-.52.1-.1.24-.14.37-.11,0,0,1.71.45,4.2,1.24,1.24.4,2.7.86,4.23,1.4,1.55.51,3.16,1.15,4.78,1.75,1.6.64,3.4.93,4.83,1.66,1.42.76,2.53,1.84,3.43,2.86.45.51.84,1.03,1.16,1.53.32.5.59.95.79,1.36.41.8.59,1.38.59,1.38.08.27-.07.55-.33.63,0,0,0,0-.01,0Z"/>
      <path class="cls-2" d="M57.77,106.03s-1,.41-2.69.84c-.85.21-1.87.45-3.03.62-1.16.18-2.46.34-3.86.43-1.4.09-2.91.12-4.49.06-1.58-.03-3.23-.19-4.91-.5-1.68-.32-3.38-.86-5.1-1.44-1.72-.57-3.47-1.13-5.24-1.62-3.53-.97-7.07-1.9-10.36-2.91-3.3-.96-6.37-1.92-9-2.74-5.26-1.66-8.74-2.88-8.74-2.88-.27-.09-.41-.38-.31-.65.07-.21.27-.34.49-.34,0,0,3.69.04,9.2.29,2.75.13,5.97.28,9.39.51,3.44.18,7.08.52,10.73.81,1.82.15,3.66.22,5.48.27,1.81.05,3.59.13,5.28.4,1.69.28,3.29.7,4.79,1.21,1.5.49,2.91,1.03,4.2,1.6,1.29.56,2.46,1.15,3.48,1.72,1.03.56,1.91,1.14,2.63,1.62,1.45.98,2.24,1.71,2.24,1.71.24.22.26.6.04.84-.06.07-.13.12-.21.15Z"/>
      <path class="cls-2" d="M57.92,125.56s-.34.49-.97,1.14c-.32.33-.71.68-1.17,1.06-.46.38-.98.75-1.57,1.11-1.17.7-2.56,1.4-4.14,1.7-1.58.26-3.38,0-5.1.13-1.73.09-3.45.22-5.08.24-1.63.05-3.15.06-4.46.06-2.62,0-4.38-.09-4.38-.09-.2-.01-.36-.18-.35-.39,0-.14.09-.26.21-.32,0,0,1.6-.75,4.01-1.76,1.21-.49,2.62-1.07,4.14-1.65,1.52-.61,3.15-1.15,4.78-1.73,1.64-.54,3.2-1.47,4.76-1.83,1.57-.33,3.12-.22,4.47-.02.68.1,1.3.25,1.87.43.57.17,1.06.35,1.48.53.83.35,1.34.68,1.34.68.23.15.3.46.15.69,0,0,0,0,0,0Z"/>
      <path class="cls-2" d="M64.83,144.12s-.5.96-1.52,2.38c-.52.7-1.14,1.55-1.92,2.43-.77.89-1.66,1.85-2.69,2.81-1.02.98-2.15,1.97-3.4,2.94-1.24.99-2.6,1.93-4.09,2.77-1.49.83-3.14,1.51-4.82,2.18-1.69.67-3.39,1.36-5.05,2.13-3.33,1.52-6.63,3.09-9.8,4.43-3.14,1.39-6.11,2.62-8.65,3.69-5.09,2.11-8.55,3.42-8.55,3.42-.26.1-.56-.03-.66-.3-.08-.21-.01-.44.15-.57,0,0,2.86-2.34,7.23-5.69,2.19-1.67,4.75-3.62,7.52-5.65,2.75-2.07,5.76-4.15,8.74-6.28,1.49-1.06,2.95-2.18,4.37-3.31,1.42-1.13,2.83-2.21,4.3-3.09,1.47-.87,2.97-1.58,4.44-2.16,1.46-.6,2.89-1.08,4.24-1.48,1.35-.4,2.62-.7,3.77-.92,1.15-.24,2.2-.36,3.06-.45,1.74-.18,2.82-.13,2.82-.13.33.01.58.29.57.62,0,.09-.03.18-.07.25Z"/>
      <path class="cls-2" d="M77.5,158.98s.06.6-.01,1.5c-.03.46-.1.98-.21,1.56-.11.58-.27,1.21-.49,1.86-.44,1.29-1.06,2.72-2.08,3.96-1.04,1.22-2.59,2.18-3.82,3.38-1.27,1.18-2.5,2.38-3.74,3.44-1.21,1.09-2.38,2.07-3.38,2.91-2.01,1.68-3.41,2.75-3.41,2.75-.16.12-.39.09-.52-.07-.09-.11-.1-.26-.04-.38,0,0,.74-1.6,1.95-3.93.61-1.16,1.32-2.51,2.11-3.93.77-1.44,1.68-2.91,2.55-4.4.91-1.46,1.51-3.18,2.47-4.46.99-1.26,2.25-2.17,3.41-2.89.58-.35,1.16-.65,1.71-.88.54-.23,1.04-.42,1.48-.55.86-.27,1.46-.34,1.46-.34.28-.03.52.16.56.44,0,0,0,0,0,.01Z"/>
      <path class="cls-2" d="M169.32,105.04s.8-.73,2.24-1.71c.72-.48,1.6-1.07,2.63-1.62,1.03-.57,2.19-1.16,3.48-1.72,1.29-.57,2.7-1.11,4.2-1.6,1.5-.51,3.1-.93,4.79-1.21,1.69-.27,3.47-.35,5.28-.4,1.81-.05,3.65-.12,5.47-.27,3.65-.29,7.29-.63,10.73-.81,3.43-.23,6.64-.38,9.39-.51,5.51-.24,9.2-.29,9.2-.29.28,0,.51.22.51.5,0,.22-.14.42-.34.49,0,0-3.49,1.22-8.75,2.87-2.63.82-5.7,1.78-9,2.74-3.29,1.01-6.83,1.93-10.36,2.91-1.77.48-3.52,1.04-5.24,1.62-1.72.58-3.42,1.11-5.1,1.43-1.68.32-3.33.47-4.91.51-1.58.06-3.09.03-4.49-.06-1.4-.08-2.7-.24-3.86-.43-1.16-.17-2.18-.42-3.03-.62-1.69-.43-2.69-.84-2.69-.84-.3-.13-.45-.47-.32-.78.03-.08.09-.15.15-.21Z"/>
      <path class="cls-2" d="M162.49,86.75s.15-.58.53-1.4c.18-.42.43-.89.73-1.39.3-.51.66-1.04,1.09-1.58.86-1.06,1.92-2.19,3.31-3.01,1.4-.79,3.18-1.16,4.75-1.87,1.59-.67,3.17-1.38,4.69-1.96,1.51-.61,2.94-1.13,4.17-1.58,2.46-.9,4.15-1.42,4.15-1.42.19-.06.4.05.46.24.04.13,0,.28-.09.37,0,0-1.24,1.25-3.17,3.02-.97.88-2.1,1.91-3.33,2.97-1.22,1.09-2.57,2.16-3.9,3.26-1.36,1.07-2.5,2.47-3.85,3.35-1.36.85-2.86,1.27-4.19,1.54-.67.14-1.31.21-1.9.24-.59.03-1.12.04-1.57,0-.9-.05-1.49-.18-1.49-.18-.27-.06-.44-.33-.37-.6,0,0,0,0,0-.01Z"/>
      <path class="cls-2" d="M149.65,71.67s.14-1.07.62-2.75c.24-.84.54-1.85.97-2.94.42-1.1.93-2.3,1.56-3.56.62-1.26,1.35-2.58,2.19-3.92.82-1.35,1.78-2.71,2.89-4,1.12-1.29,2.43-2.49,3.79-3.69,1.36-1.2,2.72-2.44,4.02-3.73,2.61-2.57,5.18-5.17,7.7-7.52,2.48-2.38,4.85-4.55,6.87-6.42,4.06-3.73,6.86-6.13,6.86-6.13.21-.18.53-.16.72.05.15.17.16.41.05.59,0,0-1.89,3.18-4.85,7.82-1.49,2.32-3.22,5.03-5.14,7.88-1.87,2.89-3.99,5.87-6.07,8.89-1.04,1.51-2.02,3.06-2.97,4.61-.95,1.55-1.91,3.05-2.98,4.37-1.08,1.32-2.25,2.5-3.44,3.55-1.17,1.06-2.35,2.01-3.48,2.84-1.13.84-2.23,1.55-3.23,2.16-1,.61-1.94,1.08-2.72,1.47-1.57.76-2.6,1.08-2.6,1.08-.31.1-.65-.07-.75-.39-.03-.09-.03-.17-.02-.26Z"/>
      <path class="cls-2" d="M132.66,62.04s-.26-.54-.5-1.41c-.13-.44-.24-.96-.33-1.54-.1-.58-.16-1.23-.18-1.91-.02-1.36.07-2.91.6-4.43.56-1.5,1.69-2.93,2.44-4.48.79-1.54,1.54-3.1,2.34-4.52.77-1.44,1.53-2.76,2.18-3.89,1.31-2.27,2.26-3.75,2.26-3.75.11-.17.34-.22.51-.11.12.07.18.21.17.34,0,0-.15,1.76-.49,4.35-.18,1.29-.38,2.81-.64,4.41-.23,1.62-.58,3.31-.9,5.01-.35,1.69-.33,3.5-.8,5.04-.5,1.52-1.37,2.81-2.22,3.88-.43.53-.87,1-1.3,1.41-.43.41-.83.75-1.2,1.02-.72.55-1.26.82-1.26.82-.25.13-.55.03-.67-.22,0,0,0,0,0,0Z"/>
    </g>
  </g>
  <g>
    <path class="cls-1" d="M126.54,186.55c-9.46,0-17.13,7.67-17.13,17.13s7.67,17.13,17.13,17.13,17.13-7.66,17.13-17.13-7.66-17.13-17.13-17.13ZM126.54,211.12c-4.11,0-7.44-3.33-7.44-7.45s3.33-7.44,7.44-7.44,7.45,3.33,7.45,7.44-3.33,7.45-7.45,7.45Z"/>
    <path class="cls-1" d="M216.86,186.55c-9.46,0-17.13,7.67-17.13,17.13s7.67,17.13,17.13,17.13,17.13-7.66,17.13-17.13-7.66-17.13-17.13-17.13ZM216.86,211.12c-4.11,0-7.45-3.33-7.45-7.45s3.33-7.44,7.45-7.44,7.45,3.33,7.45,7.44-3.34,7.45-7.45,7.45Z"/>
    <path class="cls-1" d="M92.6,125.52h78.97c2.82,0,5.12,2.29,5.12,5.12v30.45c0,2.82-2.29,5.12-5.12,5.12h-78.97c-2.82,0-5.12-2.29-5.12-5.12v-30.45c0-2.82,2.29-5.12,5.12-5.12Z"/>
    <path class="cls-1" d="M148.23,122.32h23.23c2.82,0,5.12-2.3,5.12-5.12v-18.86c0-2.81-2.3-5.12-5.12-5.12h-23.23c-2.81,0-5.12,2.3-5.12,5.12v18.86c0,2.82,2.3,5.12,5.12,5.12Z"/>
    <path class="cls-1" d="M92.6,122.32h42.06c2.81,0,5.12-2.3,5.12-5.12v-10.59c0-2.81-2.3-5.12-5.12-5.12h-42.06c-2.81,0-5.12,2.3-5.12,5.12v10.59c0,2.82,2.3,5.12,5.12,5.12Z"/>
    <path class="cls-1" d="M250.42,159.46c-6.28-1.63-9.87-2.66-12.34-7.42l-8.25-16.69c-2.47-4.76-8.87-8.66-14.24-8.66h-15.87v-4.74c0-2.81-2.3-5.12-5.12-5.12h-9.62c-2.82,0-5.12,2.3-5.12,5.12v44.48c-1.02,2.06-3.14,3.49-5.58,3.49h-60.73c-.15,0-.33,0-.54.02h-9.99s-4.15-.01-4.15-.01c-.25-.04-6.65-.01-6.65-.01-2.81,0-4.75,2.25-4.75,5.07v24.61c0,2.81,2.3,5.12,5.12,5.12h11.65c-.02-.34-.03-.69-.03-1.04,0-12.3,10.01-22.32,22.32-22.32s22.32,10.02,22.32,22.32c0,.35-.01.69-.03,1.04h44.1c.56,0,1.1-.05,1.63-.14-.01-.29-.02-.59-.02-.89,0-12.3,10.01-22.32,22.32-22.32s22.32,10.02,22.32,22.32c0,.35-.01.69-.03,1.04h20.38c5.37,0,9.76-4.39,9.76-9.75v-18.54c0-15.61-13.66-15.61-18.87-16.96ZM199.73,158.59v-25.13h12.4c4.77,0,10.47,3.47,12.67,7.71l7.34,14.86c.54,1.04,1.14,1.87,1.81,2.57h-34.22Z"/>
  </g>
</svg>